<?xml version="1.0" encoding="utf-8"?>
<!-- Generator: Adobe Illustrator 26.5.0, SVG Export Plug-In . SVG Version: 6.00 Build 0)  -->
<svg version="1.1" id="Layer_1" xmlns="http://www.w3.org/2000/svg" xmlns:xlink="http://www.w3.org/1999/xlink" x="0px" y="0px"
	 width="32px" height="32px" viewBox="0 0 32 32" enable-background="new 0 0 32 32" xml:space="preserve">
<path d="M16.75,19c0,0.55-0.45,1-1,1h-12C3.36,20,3,19.77,2.84,19.42s-0.1-0.77,0.15-1.07L13.58,6H3.75c-0.55,0-1-0.45-1-1
	s0.45-1,1-1h12c0.39,0,0.75,0.23,0.91,0.58s0.1,0.77-0.15,1.07L5.92,18h9.83C16.3,18,16.75,18.45,16.75,19z M28.25,25h-6.89
	l7.66-9.37c0.24-0.3,0.29-0.71,0.13-1.06c-0.17-0.35-0.52-0.57-0.9-0.57h-9c-0.55,0-1,0.45-1,1s0.45,1,1,1h6.89l-7.66,9.37
	c-0.24,0.3-0.29,0.71-0.13,1.06c0.17,0.35,0.52,0.57,0.9,0.57h9c0.55,0,1-0.45,1-1S28.8,25,28.25,25z"/>
</svg>
