<?xml version="1.0" encoding="utf-8"?>
<!-- Generator: Adobe Illustrator 26.5.0, SVG Export Plug-In . SVG Version: 6.00 Build 0)  -->
<svg version="1.1" id="Layer_1" xmlns="http://www.w3.org/2000/svg" xmlns:xlink="http://www.w3.org/1999/xlink" x="0px" y="0px"
	 width="32px" height="32px" viewBox="0 0 32 32" enable-background="new 0 0 32 32" xml:space="preserve">
<path d="M22,10c-0.71,0-1.4,0.08-2.07,0.22c0.14-2.63-0.69-5.3-2.53-7.42c-1.09-1.22-2.46-2.16-4-2.73
	c-0.37-0.14-0.78-0.05-1.06,0.22c-0.26,0.26-0.35,0.65-0.24,1c1.12,3.06,0.36,6.5-1.94,8.81c-2.32,2.29-5.76,3.05-8.83,1.94
	c-0.52-0.18-1.09,0.09-1.28,0.61c-0.08,0.22-0.08,0.46,0,0.68c0.51,1.36,1.31,2.6,2.34,3.63c0.95,0.95,2.08,1.67,3.29,2.18
	c-1.05,1.15-1.69,2.68-1.69,4.37c0,3.59,2.91,6.5,6.5,6.5h11.5c5.52,0,10-4.48,10-10s-4.48-10-10-10L22,10z M2.92,14.47
	C8.6,15.21,13.8,11.2,14.54,5.52c0.11-0.88,0.11-1.76,0-2.64c0.5,0.35,0.96,0.76,1.37,1.22c1.68,1.93,2.33,4.42,1.98,6.79
	c-2.66,1.2-4.7,3.54-5.51,6.39C11.78,17.1,11.15,17,10.5,17c-1.03,0-2,0.25-2.86,0.67C5.76,17.19,4.08,16.08,2.92,14.47z M22,28
	H10.5C8.02,28,6,25.98,6,23.5S8.02,19,10.5,19c0.44,0,0.88,0.07,1.31,0.19l0.24,0.07c-0.02,0.24-0.04,0.49-0.04,0.73
	c0,0.26,0,0.52,0.03,0.78c0.04,0.52,0.48,0.92,1,0.92c0.03,0,0.05,0,0.08,0c0.55-0.04,0.96-0.52,0.92-1.08
	c-0.02-0.21-0.02-0.41-0.02-0.62c0-0.77,0.12-1.52,0.33-2.24c0.99-3.39,4.13-5.76,7.67-5.76c4.41,0,8,3.59,8,8s-3.59,8-8,8L22,28z"
	/>
</svg>
