<?xml version="1.0" encoding="utf-8"?>
<!-- Generator: Adobe Illustrator 26.5.0, SVG Export Plug-In . SVG Version: 6.00 Build 0)  -->
<svg version="1.1" id="Layer_1" xmlns="http://www.w3.org/2000/svg" xmlns:xlink="http://www.w3.org/1999/xlink" x="0px" y="0px"
	 width="32px" height="32px" viewBox="0 0 32 32" enable-background="new 0 0 32 32" xml:space="preserve">
<path d="M30,20.89h-5.07c0.04-0.34,0.07-0.67,0.07-1c0-4.96-4.04-9-9-9s-9,4.04-9,9c0,0.33,0.03,0.66,0.07,1H2c-0.55,0-1,0.45-1,1
	s0.45,1,1,1h28c0.55,0,1-0.45,1-1S30.55,20.89,30,20.89z M9.08,20.89C9.03,20.55,9,20.22,9,19.89c0-3.86,3.14-7,7-7s7,3.14,7,7
	c0,0.33-0.03,0.66-0.08,1H9.08z M28,26.89c0,0.55-0.45,1-1,1H5c-0.55,0-1-0.45-1-1s0.45-1,1-1h22C27.55,25.89,28,26.34,28,26.89z
	 M8.95,5.49c-0.21-0.51,0.03-1.1,0.54-1.31s1.09,0.03,1.31,0.54l1.15,2.77c0.21,0.51-0.03,1.1-0.54,1.31
	c-0.13,0.05-0.25,0.08-0.38,0.08c-0.39,0-0.76-0.23-0.92-0.62L8.96,5.49L8.95,5.49z M3.61,15.84l-2.77-1.15
	c-0.51-0.21-0.75-0.8-0.54-1.31c0.21-0.51,0.8-0.75,1.31-0.54l2.77,1.15c0.51,0.21,0.75,0.8,0.54,1.31
	C4.76,15.68,4.39,15.92,4,15.92c-0.13,0-0.26-0.02-0.38-0.08L3.61,15.84z M31.17,14.69l-2.77,1.15c-0.12,0.05-0.25,0.08-0.38,0.08
	c-0.39,0-0.76-0.23-0.92-0.62c-0.21-0.51,0.03-1.1,0.54-1.31l2.77-1.15c0.51-0.21,1.1,0.03,1.31,0.54s-0.03,1.1-0.54,1.31H31.17z
	 M20.06,7.5l1.15-2.77c0.21-0.51,0.8-0.75,1.31-0.54s0.75,0.8,0.54,1.31l-1.15,2.77c-0.16,0.38-0.53,0.62-0.92,0.62
	c-0.13,0-0.26-0.02-0.38-0.08c-0.51-0.21-0.75-0.8-0.54-1.31H20.06z"/>
</svg>
