<?xml version="1.0" encoding="utf-8"?>
<!-- Generator: Adobe Illustrator 26.5.0, SVG Export Plug-In . SVG Version: 6.00 Build 0)  -->
<svg version="1.1" id="Layer_1" xmlns="http://www.w3.org/2000/svg" xmlns:xlink="http://www.w3.org/1999/xlink" x="0px" y="0px"
	 width="32px" height="32px" viewBox="0 0 32 32" enable-background="new 0 0 32 32" xml:space="preserve">
<path d="M16,0L16,0c0.552,0,1,0.448,1,1v3c0,0.552-0.448,1-1,1l0,0c-0.552,0-1-0.448-1-1V1C15,0.448,15.448,0,16,0z M4.684,4.682
	L4.684,4.682c0.391-0.391,1.024-0.391,1.414,0l2.121,2.121c0.391,0.391,0.391,1.024,0,1.414l0,0c-0.391,0.391-1.024,0.391-1.414,0
	L4.684,6.096C4.293,5.706,4.293,5.073,4.684,4.682z M0,16L0,16c0-0.552,0.448-1,1-1h3c0.552,0,1,0.448,1,1l0,0c0,0.552-0.448,1-1,1
	H1C0.448,17,0,16.552,0,16z M4.688,27.31L4.688,27.31c-0.391-0.391-0.391-1.024,0-1.414l2.121-2.121
	c0.391-0.391,1.024-0.391,1.414,0l0,0c0.391,0.391,0.391,1.024,0,1.414L6.102,27.31C5.712,27.701,5.078,27.701,4.688,27.31z M16,32
	L16,32c-0.552,0-1-0.448-1-1v-3c0-0.552,0.448-1,1-1l0,0c0.552,0,1,0.448,1,1v3C17,31.552,16.552,32,16,32z M27.305,27.318
	L27.305,27.318c-0.391,0.391-1.024,0.391-1.414,0l-2.121-2.121c-0.391-0.391-0.391-1.024,0-1.414l0,0
	c0.391-0.391,1.024-0.391,1.414,0l2.121,2.121C27.695,26.294,27.695,26.927,27.305,27.318z M32,16L32,16c0,0.552-0.448,1-1,1h-3
	c-0.552,0-1-0.448-1-1l0,0c0-0.552,0.448-1,1-1h3C31.552,15,32,15.448,32,16z M27.324,4.69L27.324,4.69
	c0.391,0.391,0.391,1.024,0,1.414l-2.121,2.121c-0.391,0.391-1.024,0.391-1.414,0l0,0c-0.391-0.391-0.391-1.024,0-1.414l2.121-2.121
	C26.3,4.299,26.933,4.299,27.324,4.69z M16,10c3.31,0,6,2.69,6,6s-2.69,6-6,6s-6-2.69-6-6S12.69,10,16,10 M16,8c-4.42,0-8,3.58-8,8
	s3.58,8,8,8s8-3.58,8-8S20.42,8,16,8L16,8z"/>
</svg>
